<?xml version="1.0" encoding="UTF-8" standalone="no"?>
<svg
   version="1.1"
   viewBox="0 0 21.5 21.5"
   enable-background="new 0 0 21.5 21.5"
   style="fill:#EC2731;"
   id="svg6"
   sodipodi:docname="asterisk.svg"
   inkscape:version="1.1.1 (3bf5ae0d25, 2021-09-20)"
   xmlns:inkscape="http://www.inkscape.org/namespaces/inkscape"
   xmlns:sodipodi="http://sodipodi.sourceforge.net/DTD/sodipodi-0.dtd"
   xmlns="http://www.w3.org/2000/svg"
   xmlns:svg="http://www.w3.org/2000/svg">
  <defs
     id="defs10" />
  <sodipodi:namedview
     id="namedview8"
     pagecolor="#ffffff"
     bordercolor="#666666"
     borderopacity="1.0"
     inkscape:pageshadow="2"
     inkscape:pageopacity="0.0"
     inkscape:pagecheckerboard="0"
     showgrid="false"
     inkscape:zoom="124.83721"
     inkscape:cx="19.481371"
     inkscape:cy="2.130775"
     inkscape:window-width="1920"
     inkscape:window-height="1022"
     inkscape:window-x="0"
     inkscape:window-y="32"
     inkscape:window-maximized="1"
     inkscape:current-layer="svg6" />
  <g
     id="g4">
    <path
       fill-rule="evenodd"
       d="M0.75,11.5h8.189l-5.79,5.791c-0.293,0.293-0.293,0.768,0,1.061   c0.146,0.146,0.338,0.22,0.53,0.22s0.384-0.073,0.53-0.22L10,12.561v8.189c0,0.414,0.336,0.75,0.75,0.75   c0.414,0,0.75-0.336,0.75-0.75v-8.19l5.791,5.791c0.146,0.146,0.338,0.22,0.53,0.22c0.192,0,0.384-0.073,0.53-0.22   c0.293-0.293,0.293-0.768,0-1.061l-5.79-5.791h8.189c0.414,0,0.75-0.336,0.75-0.75c0-0.414-0.336-0.75-0.75-0.75h-8.189   l5.791-5.791c0.293-0.293,0.293-0.768,0-1.061c-0.293-0.293-0.768-0.293-1.06,0L11.5,8.939V0.75C11.5,0.336,11.164,0,10.75,0   C10.336,0,10,0.336,10,0.75v8.189L4.209,3.148c-0.293-0.293-0.768-0.293-1.061,0c-0.293,0.293-0.293,0.768,0,1.061L8.94,10H0.75   C0.336,10,0,10.336,0,10.75C0,11.164,0.336,11.5,0.75,11.5z"
       id="path2" />
  </g>
  <path
     style="fill:#b51a22;stroke:none;stroke-width:0.0320417;fill-opacity:1"
     d="m 10.56459,21.454366 c -0.193236,-0.05188 -0.367642,-0.191677 -0.462184,-0.370458 l -0.07334,-0.138697 v -4.192426 c 0,-2.305835 -0.01063,-4.192427 -0.02363,-4.192427 -0.012998,0 -1.3575487,1.331442 -2.9878912,2.958761 -3.2070841,3.201137 -3.0215036,3.034077 -3.3684982,3.032338 -0.3657339,-0.0018 -0.7012006,-0.340302 -0.7012006,-0.707478 0,-0.33991 -0.1607274,-0.161815 3.0398402,-3.368318 L 8.9532399,11.5046 4.7730061,11.49578 c -4.62142939,-0.0098 -4.27291735,0.0067 -4.52369714,-0.213491 -0.29939966,-0.262876 -0.29939966,-0.801702 0,-1.064578 C 0.50008875,9.9975234 0.15157671,10.013971 4.7730061,10.00422 L 8.9532399,9.9953997 5.9876792,7.0243393 C 2.7791561,3.8098654 2.9468043,3.9960576 2.9485427,3.6490396 2.9503749,3.2833057 3.2888447,2.947839 3.6560208,2.947839 c 0.3398872,0 0.1623882,-0.1601543 3.361517,3.0330416 1.6303425,1.627319 2.9747362,2.9587617 2.9875412,2.9587617 0.01281,0 0.02704,-1.902039 0.03164,-4.2267535 l 0.0084,-4.22675365 0.09732,-0.13845801 c 0.122095,-0.17371418 0.262893,-0.26965477 0.456575,-0.31111544 0.295744,-0.06330839 0.576345,0.05176673 0.758629,0.31111544 l 0.09732,0.13845801 0.0084,4.22675365 c 0.0046,2.3247145 0.01884,4.2267535 0.03164,4.2267535 0.01281,0 1.357199,-1.3325322 2.987541,-2.9611828 3.199671,-3.1963508 3.015346,-3.0299958 3.3578,-3.0304418 0.379946,-4.947e-4 0.709939,0.3340839 0.710882,0.7207602 8.17e-4,0.3352946 0.07573,0.2524703 -3.071812,3.3964233 l -2.919123,2.9157973 4.17351,0.016021 c 3.932978,0.015097 4.180896,0.01935 4.301676,0.073793 0.565336,0.254832 0.595495,1.038224 0.05103,1.325591 l -0.141217,0.07453 h -4.192426 c -2.305835,0 -4.192427,0.01063 -4.192427,0.02363 0,0.013 1.331442,1.357549 2.958761,2.987891 2.570499,2.575275 2.963636,2.981566 2.995902,3.096144 0.07882,0.279906 0.02766,0.528295 -0.149232,0.724497 -0.22787,0.252743 -0.550137,0.317533 -0.854984,0.171892 -0.128624,-0.06145 -0.735034,-0.65202 -3.07594,-2.995589 -1.603653,-1.605477 -2.926575,-2.919048 -2.939829,-2.919048 -0.01325,0 -0.0241,1.882113 -0.0241,4.182474 0,3.47614 -0.0074,4.200281 -0.04405,4.287912 -0.140036,0.335152 -0.511721,0.517752 -0.862295,0.423622 z"
     id="path1131" />
</svg>
